HIERARCHY
ROOT Hips
{
	OFFSET -0.001795 -0.223333 0.028219
	CHANNELS 6 Xposition Yposition Zposition Zrotation Yrotation Xrotation 
	JOINT LeftUpLeg
	{
		OFFSET 0.069520 -0.091406 -0.006815
		CHANNELS 3 Zrotation Yrotation Xrotation
		JOINT LeftLeg
		{
			OFFSET 0.034277 -0.375199 -0.004496
			CHANNELS 3 Zrotation Yrotation Xrotation
			JOINT LeftFoot
			{
				OFFSET -0.013596 -0.397961 -0.043693
				CHANNELS 3 Zrotation Yrotation Xrotation
				JOINT LeftToe
				{
					OFFSET 0.026358 -0.055791 0.119288
					CHANNELS 3 Zrotation Yrotation Xrotation
					End Site
					{
						OFFSET 0.000000 0.000000 0.000000
					}
				}
			}
		}
	}
	JOINT RightUpLeg
	{
		OFFSET -0.067670 -0.090522 -0.004320
		CHANNELS 3 Zrotation Yrotation Xrotation
		JOINT RightLeg
		{
			OFFSET -0.038290 -0.382569 -0.008850
			CHANNELS 3 Zrotation Yrotation Xrotation
			JOINT RightFoot
			{
				OFFSET 0.015774 -0.398415 -0.042312
				CHANNELS 3 Zrotation Yrotation Xrotation
				JOINT RightToe
				{
					OFFSET -0.025372 -0.048144 0.123348
					CHANNELS 3 Zrotation Yrotation Xrotation
					End Site
					{
						OFFSET 0.000000 0.000000 0.000000
					}
				}
			}
		}
	}
	JOINT Spine
	{
		OFFSET -0.002533 0.108963 -0.026696
		CHANNELS 3 Zrotation Yrotation Xrotation
		JOINT Spine1
		{
			OFFSET 0.005487 0.135180 0.001092
			CHANNELS 3 Zrotation Yrotation Xrotation
			JOINT Spine2
			{
				OFFSET 0.001457 0.052922 0.025425
				CHANNELS 3 Zrotation Yrotation Xrotation
				JOINT Neck
				{
					OFFSET -0.002778 0.213870 -0.042857
					CHANNELS 3 Zrotation Yrotation Xrotation
					JOINT Head
					{
						OFFSET 0.005152 0.064970 0.051349
						CHANNELS 3 Zrotation Yrotation Xrotation
						End Site
						{
							OFFSET 0.000000 0.000000 0.000000
						}
					}
				}
				JOINT LeftShoulder
				{
					OFFSET 0.078845 0.121749 -0.034090
					CHANNELS 3 Zrotation Yrotation Xrotation
					JOINT LeftArm
					{
						OFFSET 0.090977 0.030469 -0.008868
						CHANNELS 3 Zrotation Yrotation Xrotation
						JOINT LeftForeArm
						{
							OFFSET 0.259612 -0.012772 -0.027456
							CHANNELS 3 Zrotation Yrotation Xrotation
							JOINT LeftHand
							{
								OFFSET 0.249234 0.008986 -0.001171
								CHANNELS 3 Zrotation Yrotation Xrotation
								End Site
								{
									OFFSET 0.000000 0.000000 0.000000
								}
							}
						}
					}
				}
				JOINT RightShoulder
				{
					OFFSET -0.081759 0.118833 -0.038615
					CHANNELS 3 Zrotation Yrotation Xrotation
					JOINT RightArm
					{
						OFFSET -0.096012 0.032551 -0.009143
						CHANNELS 3 Zrotation Yrotation Xrotation
						JOINT RightForeArm
						{
							OFFSET -0.253742 -0.013329 -0.021401
							CHANNELS 3 Zrotation Yrotation Xrotation
							JOINT RightHand
							{
								OFFSET -0.255298 0.007772 -0.005559
								CHANNELS 3 Zrotation Yrotation Xrotation
								End Site
								{
									OFFSET 0.000000 0.000000 0.000000
								}
							}
						}
					}
				}
			}
		}
	}
}
MOTION
Frames: 16
Frame Time: 0.050000
-0.441457 0.914144 2.736572 1.520646 -14.631705 -12.559375 -3.292354 -1.302371 -10.829329 -2.079921 1.164013 25.529933 4.423978 8.480258 -11.407296 0.000000 0.000000 0.000000 -0.960915 -0.252951 4.288776 0.052958 7.420289 55.709205 -2.965896 -9.525671 5.786253 0.000000 0.000000 0.000000 -0.282821 -0.300422 15.362446 -6.475012 1.940056 -28.176374 -1.438296 6.782525 36.806467 8.617759 -3.169880 -34.394893 0.000000 0.000000 0.000000 -22.805912 -2.633656 1.682252 -38.030930 -9.905874 -4.865358 -93.024229 -67.324338 77.936059 0.000000 0.000000 0.000000 28.086252 -12.323789 -10.667795 48.036482 -8.750522 -10.941256 103.211440 36.347945 47.967555 0.000000 0.000000 0.000000 
-0.451554 0.927189 2.797965 0.500858 -15.891179 -13.301213 -3.810855 -0.710323 -4.748205 -0.061127 0.435522 24.315955 4.707126 9.580452 -13.497378 0.000000 0.000000 0.000000 0.985542 0.353277 -3.473147 1.079487 6.293663 51.640986 -4.833168 -12.705983 3.277366 0.000000 0.000000 0.000000 2.094264 -0.544493 16.347035 -5.748770 1.748940 -27.715886 -5.104596 2.954893 35.685427 8.518783 -4.364144 -31.736567 0.000000 0.000000 0.000000 -20.442183 -5.494184 4.488822 -38.905690 -16.529529 -3.294716 -77.029107 -74.111951 71.522999 0.000000 0.000000 0.000000 25.426035 -12.262465 -11.400124 46.948119 -12.347317 -11.637703 102.503655 33.999972 41.499619 0.000000 0.000000 0.000000 
-0.462847 0.956067 2.851762 -0.884448 -16.408746 -11.244897 -3.641585 -0.143896 -0.345412 1.809734 -0.407381 18.752017 4.679074 9.981216 -9.936374 0.000000 0.000000 0.000000 3.827360 1.277555 -9.682126 -0.472286 4.960801 40.671332 -2.900559 -9.999786 6.443813 0.000000 0.000000 0.000000 4.294826 -0.758018 15.011849 -4.541564 1.471109 -29.303139 -7.129059 0.198495 36.835932 6.850544 -3.922230 -32.825800 0.000000 0.000000 0.000000 -19.663985 -4.729944 4.852550 -39.657095 -20.058598 -2.504716 -83.981249 -77.695195 83.673786 0.000000 0.000000 0.000000 21.771023 -12.838782 -11.470688 46.477577 -15.219853 -12.645924 105.187713 30.912738 37.213045 0.000000 0.000000 0.000000 
-0.475060 0.984668 2.900284 -1.191474 -16.955431 -10.571615 -2.441871 0.217916 2.194088 0.437692 -0.046564 15.988606 4.864455 10.661513 -3.656681 0.000000 0.000000 0.000000 4.758941 1.423519 -10.202233 -1.176691 2.543431 24.537297 1.091809 -5.105835 11.998392 0.000000 0.000000 0.000000 6.330690 -0.939294 14.868790 -5.734715 1.722676 -28.828905 -7.612085 -1.532757 35.678919 6.257419 -4.436081 -28.606674 0.000000 0.000000 0.000000 -16.715678 -6.050165 5.402179 -41.533583 -20.965918 -1.777708 -101.955679 -80.472869 106.017871 0.000000 0.000000 0.000000 19.058307 -13.755372 -11.504514 47.824736 -17.055021 -13.760073 110.873451 30.610001 39.320189 0.000000 0.000000 0.000000 
-0.487174 1.002621 2.945562 -0.733714 -14.826354 -9.411248 -2.140529 0.099792 1.189515 0.295908 -0.096913 15.454591 4.082968 9.235373 4.260891 0.000000 0.000000 0.000000 3.726869 1.102116 -8.678316 -0.741471 1.046873 13.674712 4.509047 -3.310823 20.859376 0.000000 0.000000 0.000000 6.186808 -0.955362 14.273051 -6.680475 1.976511 -30.756773 -7.045419 -2.616829 37.124107 7.209074 -4.957713 -29.170248 0.000000 0.000000 0.000000 -16.532688 -5.014187 4.847070 -41.661866 -20.572767 -1.968301 -127.897793 -77.009815 132.165295 0.000000 0.000000 0.000000 19.644453 -14.634559 -12.292319 47.312336 -17.504610 -13.735151 117.712346 30.839902 44.856356 0.000000 0.000000 0.000000 
-0.498870 1.001010 2.988597 0.043862 -12.814790 -9.070264 -2.742695 0.154020 1.655600 0.253828 -0.176115 13.705021 4.459312 10.481076 10.082215 0.000000 0.000000 0.000000 2.950055 0.755253 -6.484520 -0.150537 0.648244 10.684347 3.627853 -6.451957 26.404613 0.000000 0.000000 0.000000 5.611042 -0.907181 13.703889 -7.971951 2.282397 -29.230186 -5.658871 -2.611394 35.435459 7.177362 -4.872799 -27.252324 0.000000 0.000000 0.000000 -16.618319 -5.038298 4.505471 -42.060789 -17.626745 -2.736543 -137.211431 -71.082184 138.298690 0.000000 0.000000 0.000000 20.512458 -15.878606 -12.982143 47.640995 -16.502153 -13.285076 121.027652 32.559393 51.493546 0.000000 0.000000 0.000000 
-0.509134 0.988319 3.027626 -0.149985 -10.969328 -8.817340 -1.795682 0.182712 1.824940 0.359248 -0.263143 14.487315 3.771232 9.633271 11.539698 0.000000 0.000000 0.000000 2.703151 0.430103 -3.956123 -0.274334 0.533342 9.082428 3.194233 -7.418648 28.872082 0.000000 0.000000 0.000000 6.040072 -0.981012 13.689875 -9.067318 2.544912 -29.274184 -4.534804 -2.236006 35.783237 7.469778 -4.560776 -28.756096 0.000000 0.000000 0.000000 -16.824513 -2.968192 3.086876 -41.791230 -13.146430 -4.225383 -141.881618 -64.994121 139.055564 0.000000 0.000000 0.000000 21.448009 -15.827284 -12.846166 47.955408 -13.841703 -12.432663 124.137714 34.879380 59.886089 0.000000 0.000000 0.000000 
-0.517129 0.974105 3.059917 -0.337919 -9.180709 -7.806131 -0.679787 0.206135 1.997281 0.107109 -0.261081 15.419028 2.688796 7.476444 8.423926 0.000000 0.000000 0.000000 2.447464 0.162379 -1.740072 0.112813 0.401556 8.289184 2.886314 -6.632453 26.217401 0.000000 0.000000 0.000000 6.318312 -1.086540 14.117328 -9.495392 2.642752 -29.454350 -3.092914 -0.415806 34.938562 8.337703 -4.229137 -30.304020 0.000000 0.000000 0.000000 -17.842115 -0.971113 1.383770 -40.328218 -8.459763 -5.424541 -143.759894 -60.256288 135.264325 0.000000 0.000000 0.000000 23.454566 -15.989842 -12.782928 47.252979 -10.027021 -10.834730 124.020551 39.086737 68.730974 0.000000 0.000000 0.000000 
-0.522082 0.971089 3.084169 -0.405186 -7.657905 -6.619057 -0.242833 0.189665 1.867032 0.087610 -0.301598 14.474432 2.254997 7.161797 10.126703 0.000000 0.000000 0.000000 2.126073 0.000283 -0.329743 0.046141 0.340923 7.239759 3.671886 -4.105887 23.134677 0.000000 0.000000 0.000000 6.570446 -1.135260 13.716481 -9.897455 2.725140 -29.321109 -1.777193 0.871164 35.518849 8.403173 -3.716641 -31.519015 0.000000 0.000000 0.000000 -18.028955 0.707883 -0.020156 -40.413120 -5.705703 -6.207741 -141.886697 -57.789972 128.640709 0.000000 0.000000 0.000000 25.226637 -15.317879 -12.241987 46.431879 -6.283255 -9.477542 125.048904 43.368710 78.298239 0.000000 0.000000 0.000000 
-0.524293 0.973130 3.102627 -0.336765 -6.670930 -4.753167 -0.365614 0.153488 1.526899 0.274733 -0.333326 11.722886 2.224124 7.915157 13.821695 0.000000 0.000000 0.000000 1.243356 -0.013698 -0.111444 0.685844 0.179245 6.078387 4.747750 -1.812079 22.084864 0.000000 0.000000 0.000000 6.353361 -1.082418 12.661763 -9.072448 2.568950 -28.373227 -1.379202 2.844726 34.846628 9.020455 -3.487674 -31.849803 0.000000 0.000000 0.000000 -17.505066 1.378666 -0.983773 -41.392248 -3.002167 -6.905117 -141.322604 -55.791063 124.052500 0.000000 0.000000 0.000000 25.551704 -14.672275 -11.136899 47.168588 -3.453265 -8.743153 126.262399 45.932865 85.574415 0.000000 0.000000 0.000000 
-0.524240 0.975595 3.117349 0.005865 -6.071888 -3.615830 -0.624530 0.155027 1.528366 0.348637 -0.299913 8.908156 1.786484 8.347349 19.282967 0.000000 0.000000 0.000000 0.544790 -0.004208 -0.070465 0.908235 0.110929 5.316557 4.925197 -1.755993 22.927961 0.000000 0.000000 0.000000 6.262731 -1.027827 11.757920 -9.193068 2.619131 -27.719170 -0.831860 3.861765 34.508576 8.928229 -3.206705 -31.503155 0.000000 0.000000 0.000000 -16.749269 2.617838 -1.919687 -42.241230 -1.699717 -7.310511 -139.647803 -54.268325 118.984517 0.000000 0.000000 0.000000 25.111523 -14.254569 -10.324301 48.284725 -1.772563 -8.405563 125.864285 47.167654 88.111171 0.000000 0.000000 0.000000 
-0.522598 0.975909 3.129712 0.144764 -5.109471 -2.590065 -0.535346 0.217979 2.157593 0.024884 -0.175451 5.960981 1.220310 8.203984 21.895273 0.000000 0.000000 0.000000 0.244059 -0.080047 0.770644 0.877359 0.054843 3.909459 4.527725 -1.610015 21.542483 0.000000 0.000000 0.000000 6.650181 -0.992159 10.573816 -9.120488 2.643573 -26.746080 -0.639452 4.632971 34.174572 8.548273 -2.768082 -31.141092 0.000000 0.000000 0.000000 -16.248984 2.948631 -2.361917 -43.127041 -0.653077 -7.671615 -139.968585 -52.646558 116.810220 0.000000 0.000000 0.000000 24.422605 -14.153270 -9.675572 49.465896 -0.189607 -8.058601 126.911794 48.009461 92.047928 0.000000 0.000000 0.000000 
-0.519976 0.975704 3.139613 0.353187 -4.625492 -2.007331 -0.707039 0.325773 3.167380 -0.117456 -0.098846 3.864253 0.564964 7.489936 22.377333 0.000000 0.000000 0.000000 -0.137936 -0.140215 1.540559 0.949223 -0.003371 2.614626 4.041886 -2.188902 21.297958 0.000000 0.000000 0.000000 6.708089 -0.966476 10.059095 -9.307781 2.745497 -25.634652 -0.367929 4.831061 33.425301 8.583559 -2.700849 -30.901177 0.000000 0.000000 0.000000 -15.571171 3.269295 -2.597951 -43.556813 -0.712217 -7.605152 -139.980795 -51.820755 115.433609 0.000000 0.000000 0.000000 24.365465 -13.693559 -9.234200 49.751550 0.458382 -7.803463 128.611829 48.363481 95.239120 0.000000 0.000000 0.000000 
-0.516948 0.974196 3.147006 0.446086 -3.600360 -1.604183 -0.774997 0.394028 3.821853 -0.197568 -0.040059 2.099761 -0.059336 7.026309 23.263607 0.000000 0.000000 0.000000 -0.150464 -0.257203 2.765892 0.814726 -0.027079 1.574040 2.971684 -2.731006 18.731776 0.000000 0.000000 0.000000 6.837597 -1.002124 10.120940 -9.141127 2.729858 -25.281684 -0.393947 4.671411 33.175170 8.361313 -2.470256 -30.953458 0.000000 0.000000 0.000000 -15.686158 2.556665 -2.355389 -43.347364 -1.639807 -7.222814 -140.738593 -51.841670 116.264433 0.000000 0.000000 0.000000 25.013818 -13.397010 -9.033385 49.454909 1.327515 -7.450174 129.674857 48.517586 97.279243 0.000000 0.000000 0.000000 
-0.513972 0.972640 3.152071 0.520412 -2.763344 -1.578464 -0.923644 0.445577 4.286150 -0.257388 -0.012497 1.391148 -0.324853 6.880249 23.515271 0.000000 0.000000 0.000000 -0.262168 -0.330033 3.571585 0.837811 -0.047297 1.116458 2.180584 -3.493281 17.626017 0.000000 0.000000 0.000000 6.815524 -1.003206 10.066863 -8.993081 2.730083 -24.880660 -0.579260 4.289351 32.692141 8.560661 -2.558731 -30.845158 0.000000 0.000000 0.000000 -15.757808 1.590375 -1.911379 -43.495474 -3.544530 -6.569681 -140.447757 -52.226133 116.192084 0.000000 0.000000 0.000000 25.675977 -12.817581 -8.744733 49.252528 1.663181 -7.275408 130.093860 48.258805 97.588991 0.000000 0.000000 0.000000 
-0.511083 0.970854 3.155737 0.577609 -1.715634 -1.454707 -0.769321 0.481914 4.746220 -0.505796 0.039027 0.637484 -1.271195 5.668428 22.965112 0.000000 0.000000 0.000000 -0.332834 -0.387494 4.167612 0.857162 -0.060873 0.839933 1.387517 -4.199631 16.295764 0.000000 0.000000 0.000000 7.035286 -1.034972 10.054210 -9.144636 2.790664 -24.644690 -0.697339 3.573294 32.220362 8.361004 -2.554848 -30.055077 0.000000 0.000000 0.000000 -15.571635 -0.052573 -1.059811 -43.748399 -5.520267 -5.902824 -140.940720 -52.665333 117.589665 0.000000 0.000000 0.000000 25.925811 -12.153089 -8.372405 49.575282 1.738218 -7.240082 128.724930 48.089796 95.476252 0.000000 0.000000 0.000000 
